<?xml version="1.0" encoding="iso-8859-1"?>
<!-- Generator: Adobe Illustrator 19.0.0, SVG Export Plug-In . SVG Version: 6.00 Build 0)  -->
<svg version="1.1" id="Capa_1" xmlns="http://www.w3.org/2000/svg" xmlns:xlink="http://www.w3.org/1999/xlink" x="0px" y="0px"
	 viewBox="0 0 512 512" style="enable-background:new 0 0 512 512;" xml:space="preserve">
<circle style="fill:#191A1A;" cx="256" cy="256" r="256"/>
<path style="fill:#00B0FA;" d="M367.933,2.717v483.578c-2.414,1.181-4.859,2.32-7.314,3.417V2.717H367.933z"/>
<g>
	<path style="fill:#373433;" d="M42.333,114.949V397.05c-2.539-3.845-4.984-7.764-7.314-11.745V126.694
		C37.349,122.713,39.794,118.794,42.333,114.949z"/>
	<path style="fill:#373433;" d="M476.466,125.795v260.409c-2.33,3.95-4.775,7.826-7.314,11.63V114.165
		C471.691,117.969,474.136,121.845,476.466,125.795z"/>
	<path style="fill:#373433;" d="M259.4,0.021v511.957c-1.129,0.01-2.267,0.021-3.396,0.021c-1.306,0-2.612-0.01-3.918-0.031V0.031
		C253.391,0.01,254.698,0,256.004,0C257.132,0,258.271,0.01,259.4,0.021z"/>
	<path style="fill:#373433;" d="M150.866,22.518v466.964c-2.456-1.108-4.901-2.257-7.314-3.438V25.955
		C145.966,24.774,148.411,23.625,150.866,22.518z"/>
</g>
<path style="fill:#FFFFFF;" d="M511.815,246.021v0.01L483.3,309.843l-6.834-9.425l-7.314-10.094l-34.137-47.083l-40.291,17.721
	l-19.184-48.41l-5.068-12.8l-2.539-6.416l-2.832-7.147l-4.483,13.448l-0.146,0.449l-4.368,13.072l-25.286,75.849h-36.645
	l-34.011,64.763l-0.763-0.449l-7.314-4.336l-40.458-23.98l-32.057-76.674l-28.703,63.916l-2.905,6.468l-4.409-1.787l-33.876-13.688
	l-38.473,38.463l-28.87,8.422l-7.314,2.132l-4.681,1.369l-13.793-6.896c-1.766-4.65-3.385-9.362-4.88-14.127l19.686,9.843
	l3.668-1.066l7.314-2.142l23.374-6.813l41.472-41.461l35.37,14.294l1.003-2.236l7.314-16.29l29.038-64.669l40.03,95.723
	l32.151,19.059l3.939,2.33l3.375-6.426l28.453-54.188h35.443l23.04-69.141l4.441-13.333l9.843-29.529l3.626-10.877l3.688,9.31
	l11.933,30.124l5.193,13.093l15.381,38.828l38.086-16.75l30.626,42.245l7.314,10.083l4.671,6.447l28.923-64.721
	C510.948,231.476,511.533,238.706,511.815,246.021z"/>
<circle style="fill:#191A1A;" cx="364.67" cy="176.16" r="37.961"/>
<circle style="fill:#00B0FA;" cx="364.67" cy="176.16" r="24.294"/>
<g>
</g>
<g>
</g>
<g>
</g>
<g>
</g>
<g>
</g>
<g>
</g>
<g>
</g>
<g>
</g>
<g>
</g>
<g>
</g>
<g>
</g>
<g>
</g>
<g>
</g>
<g>
</g>
<g>
</g>
</svg>
